<?xml version="1.0" encoding="UTF-8" standalone="no"?>
<!-- Created with Inkscape (http://www.inkscape.org/) -->

<svg
   xmlns:dc="http://purl.org/dc/elements/1.1/"
   xmlns:cc="http://creativecommons.org/ns#"
   xmlns:rdf="http://www.w3.org/1999/02/22-rdf-syntax-ns#"
   xmlns:svg="http://www.w3.org/2000/svg"
   xmlns="http://www.w3.org/2000/svg"
   xmlns:sodipodi="http://sodipodi.sourceforge.net/DTD/sodipodi-0.dtd"
   xmlns:inkscape="http://www.inkscape.org/namespaces/inkscape"
   version="1.1"
   id="svg3773"
   width="247.5247"
   height="304.60559"
   viewBox="0 0 247.52469 304.60559"
   sodipodi:docname="W-LOGO.svg"
   inkscape:version="0.92.2 5c3e80d, 2017-08-06">
  <metadata
     id="metadata3779">
    <rdf:RDF>
      <cc:Work
         rdf:about="">
        <dc:format>image/svg+xml</dc:format>
        <dc:type
           rdf:resource="http://purl.org/dc/dcmitype/StillImage" />
        <dc:title />
      </cc:Work>
    </rdf:RDF>
  </metadata>
  <defs
     id="defs3777" />
  <sodipodi:namedview
     pagecolor="#ffffff"
     bordercolor="#666666"
     borderopacity="1"
     objecttolerance="10"
     gridtolerance="10"
     guidetolerance="10"
     inkscape:pageopacity="0"
     inkscape:pageshadow="2"
     inkscape:window-width="1376"
     inkscape:window-height="855"
     id="namedview3775"
     showgrid="false"
     inkscape:zoom="2"
     inkscape:cx="60.931019"
     inkscape:cy="170.5475"
     inkscape:window-x="0"
     inkscape:window-y="1"
     inkscape:window-maximized="1"
     inkscape:current-layer="svg3773"
     fit-margin-top="0"
     fit-margin-left="0"
     fit-margin-right="0"
     fit-margin-bottom="0"
     inkscape:pagecheckerboard="true" />
  <path
     style="fill:#1a1a1a;stroke-width:0.81440002"
     d="M 8.972928,303.87215 C 5.666798,302.57443 5.700881,303.07828 5.698258,255.46513 5.696458,221.79072 4.940247,184.37427 2.853877,114.71933 1.290854,62.536652 0.009309,18.650672 0.006,17.194932 L 0,14.548132 h 13.844787 13.844799 v 28.435285 c 0,26.03598 -0.831525,101.130743 -2.038466,184.092773 l -0.479397,32.95284 30.957793,-43.45187 30.957803,-43.45188 -1.776378,-2.53138 c -2.321567,-3.30828 -9.802875,-13.00259 -10.43813,-13.52577 -0.271945,-0.22395 -0.829595,-0.99896 -1.23923,-1.72223 -0.880237,-1.55415 -5.100207,-6.9725 -6.882502,-8.83698 -0.688228,-0.71994 -2.092415,-2.66994 -3.120423,-4.33329 -4.13431,-4.50489 -4.660852,-9.10007 -4.390512,-13.87842 l 0.440625,-7.06268 h 15.223145 15.223137 l 8.415325,11.8088 c 4.628434,6.49484 8.476474,11.8088 8.551204,11.8088 0.0748,0 3.92276,-5.31396 8.5512,-11.8088 l 8.41532,-11.8088 h 15.22314 15.22315 l 0.44062,7.06268 c 1.05782,7.10075 -1.3696,9.7027 -4.39051,13.87842 -1.02801,1.66336 -2.4322,3.61335 -3.12042,4.33329 -1.7823,1.86448 -6.00227,7.28283 -6.88251,8.83698 -0.40963,0.72327 -0.96728,1.49827 -1.23923,1.72223 -0.63526,0.52318 -8.11656,10.21749 -10.43812,13.52577 l -1.77638,2.53138 30.89525,43.36409 30.89524,43.36408 -0.47314,-41.41626 c -0.26022,-22.77894 -0.70698,-68.05478 -0.99278,-100.61298 l -0.51964,-59.196713 -6.05903,5.25701 -6.05903,5.257002 -3.11786,-3.04452 -3.11788,-3.044515 9.38051,-9.354462 9.38049,-9.35446 v -5.55837 -5.558375 l -10.3836,9.312237 c -4.35873,4.396415 -8.85353,7.769133 -11.53817,9.88221 -0.26888,0.501563 -3.59213,-2.99134 -5.7974,-5.016335 l -3.47577,-3.770775 6.02827,-5.802002 C 168.13149,32.070634 189.32181,12.10679 197.89454,4.152023 L 202.36912,0 213.77534,11.610686 c 6.27342,6.385878 16.78706,16.020997 22.59534,21.990891 8.74703,8.990407 5.28628,5.602077 11.15403,11.08467 -0.6288,1.20009 -3.51458,4.873255 -5.0585,6.356755 l -2.80713,2.69727 -9.27476,-7.99087 c -8.55813,-7.373448 -13.42681,-11.2637 -15.99355,-12.779438 -0.77739,-0.459072 -1.01092,0.805745 -0.98803,5.351303 l 0.03,5.952465 10.57239,10.944542 10.57239,10.94454 -2.9785,3.050263 -2.9785,3.050262 -7.34841,-6.492732 c -4.39779,-3.885698 -7.64507,-6.196068 -8.08723,-5.753905 -1.26166,1.26166 -4.66627,142.170198 -4.68304,193.819598 -0.014,43.33395 -0.13505,47.61678 -1.38015,48.86403 -1.07551,1.0773 -3.27993,1.42405 -10.40229,1.63615 l -9.03756,0.26912 -18.83337,-24.70112 c -10.35838,-13.58563 -28.49125,-37.35863 -40.29531,-52.8289 l -21.46192,-28.12774 -40.247786,52.76335 -40.247786,52.76334 -8.207823,-0.0644 c -4.514309,-0.0355 -8.751004,-0.2775 -9.414887,-0.5381 z"
     id="path3808"
     inkscape:connector-curvature="0"
     sodipodi:nodetypes="cssccccssccccccccccccsssccccccccccccsscccccccccccccsscsscccscccccccscccsccscccccc" />
</svg>
